<?xml version="1.0" encoding="UTF-8" standalone="no"?>
<!-- Generator: Adobe Illustrator 18.0.0, SVG Export Plug-In . SVG Version: 6.00 Build 0)  -->

<svg
   version="1.1"
   id="Capa_1"
   x="0px"
   y="0px"
   viewBox="0 0 56 56"
   style="enable-background:new 0 0 56 56;"
   xml:space="preserve"
   sodipodi:docname="icon_rar.svg"
   inkscape:export-filename="icon_rar.svg"
   inkscape:export-xdpi="96"
   inkscape:export-ydpi="96"
   inkscape:version="1.2.1 (9c6d41e410, 2022-07-14)"
   xmlns:inkscape="http://www.inkscape.org/namespaces/inkscape"
   xmlns:sodipodi="http://sodipodi.sourceforge.net/DTD/sodipodi-0.dtd"
   xmlns="http://www.w3.org/2000/svg"
   xmlns:svg="http://www.w3.org/2000/svg"><defs
   id="defs304" /><sodipodi:namedview
   id="namedview302"
   pagecolor="#ffffff"
   bordercolor="#000000"
   borderopacity="0.25"
   inkscape:showpageshadow="2"
   inkscape:pageopacity="0.0"
   inkscape:pagecheckerboard="0"
   inkscape:deskcolor="#d1d1d1"
   showgrid="false"
   inkscape:zoom="10.152033"
   inkscape:cx="33.244573"
   inkscape:cy="28.71346"
   inkscape:window-width="1920"
   inkscape:window-height="991"
   inkscape:window-x="-9"
   inkscape:window-y="-9"
   inkscape:window-maximized="1"
   inkscape:current-layer="Capa_1" />
<g
   id="g269"
   style="display:inline">
	<path
   style="fill:#e9e9e0"
   d="M 36.985,0 H 7.963 C 7.155,0 6.5,0.655 6.5,1.926 V 55 c 0,0.345 0.655,1 1.463,1 H 48.037 C 48.845,56 49.5,55.345 49.5,55 V 12.978 c 0,-0.696 -0.093,-0.92 -0.257,-1.085 L 37.607,0.257 C 37.442,0.093 37.218,0 36.985,0 Z"
   id="path249" />
	<polygon
   style="fill:#d9d7ca"
   points="49.349,12 37.5,0.151 37.5,12 "
   id="polygon251" />
	<path
   style="fill:#fb9200;fill-opacity:1"
   d="M 48.037,56 H 7.963 C 7.155,56 6.5,55.345 6.5,54.537 V 39 h 43 V 54.537 C 49.5,55.345 48.845,56 48.037,56 Z"
   id="path253" />
	
	
</g>
<g
   id="g42"
   transform="matrix(0.17868074,0,0,0.27064732,-0.16564836,-11.985714)">
		<rect
   x="185.948"
   y="87.902"
   style="fill:#a4a9ad"
   width="14.419"
   height="62.587002"
   id="rect6" />
		<g
   id="g16">
			<polygon
   style="fill:#d1d3d3"
   points="182.727,143.689 203.589,139.916 203.589,133.525 182.727,137.298 "
   id="polygon8" />
			<polygon
   style="fill:#d1d3d3"
   points="182.727,130.748 203.589,126.976 203.589,120.584 182.727,124.357 "
   id="polygon10" />
			<polygon
   style="fill:#d1d3d3"
   points="182.727,117.807 203.589,114.035 203.589,107.644 182.727,111.416 "
   id="polygon12" />
			<polygon
   style="fill:#d1d3d3"
   points="182.727,104.866 203.589,101.093 203.589,94.703 182.727,98.475 "
   id="polygon14" />
		</g>
		<rect
   x="188.36501"
   y="155"
   style="fill:#a4a9ad"
   width="9.585"
   height="18.042"
   id="rect18" />
		<polygon
   style="fill:#a4a9ad"
   points="203.589,159.792 203.589,147.952 182.727,147.952 163.274,155.282 104.368,155.282 111.416,167.123 163.274,167.123 182.727,159.792 "
   id="polygon20" />
		<polygon
   style="fill:#a4a9ad"
   points="203.589,78.599 203.589,90.44 182.727,90.44 163.274,83.11 104.368,83.11 111.416,71.27 163.274,71.27 182.727,78.599 "
   id="polygon22" />
		<g
   id="g38">
			<rect
   x="89.693001"
   y="83.110001"
   style="fill:#fb9200"
   width="71.052002"
   height="72.170998"
   id="rect24" />
			<g
   id="g30">
				<rect
   x="100.176"
   y="92.184998"
   style="fill:#ff671b"
   width="50.085999"
   height="22.827999"
   id="rect26" />
				<rect
   x="117.142"
   y="98.818001"
   style="fill:#ffffff"
   width="16.153999"
   height="3.9530001"
   id="rect28" />
			</g>
			<g
   id="g36">
				<rect
   x="100.176"
   y="123.38"
   style="fill:#ff671b"
   width="50.085999"
   height="22.827"
   id="rect32" />
				<rect
   x="117.142"
   y="130.013"
   style="fill:#ffffff"
   width="16.153999"
   height="3.954"
   id="rect34" />
			</g>
		</g>
		<rect
   x="182.72701"
   y="167.123"
   style="fill:#a4a9ad"
   width="20.862"
   height="11.84"
   id="rect40" />
	</g><g
   id="g271">
</g>
<g
   id="g273">
</g>
<g
   id="g275">
</g>
<g
   id="g277"
   style="display:inline">
</g>
<g
   id="g279">
</g>
<g
   id="g281">
</g>
<g
   id="g283">
</g>
<g
   id="g285">
</g>
<g
   id="g287"
   inkscape:label="g287">
</g>
<g
   id="g289">
</g>
<g
   id="g291">
</g>
<g
   id="g293">
</g>
<g
   id="g295">
</g>
<g
   id="g297">
</g>
<g
   id="g299"
   inkscape:label="g299">
</g>
<text
   xml:space="preserve"
   style="font-size:16.3265px;fill:#ffffff;fill-opacity:1;stroke-width:1.11317"
   x="14.76442"
   y="53.087948"
   id="text2238"><tspan
     sodipodi:role="line"
     id="tspan2236"
     x="14.76442"
     y="53.087948"
     style="font-style:normal;font-variant:normal;font-weight:normal;font-stretch:normal;font-size:16.3265px;font-family:Calibri;-inkscape-font-specification:Calibri;stroke-width:1.11317">RAR</tspan></text></svg>
